<?xml version="1.0" encoding="utf-8"?>
<!-- Generator: Adobe Illustrator 22.0.1, SVG Export Plug-In . SVG Version: 6.00 Build 0)  -->
<svg version="1.1" id="Layer_1" xmlns="http://www.w3.org/2000/svg" xmlns:xlink="http://www.w3.org/1999/xlink" x="0px" y="0px"
	 viewBox="0 0 210.392 83" style="enable-background:new 0 0 210.392 83;" xml:space="preserve">
<style type="text/css">
	.st0{fill:#37BD61;}
	.st1{fill:#FFFFFF;stroke:#000000;stroke-miterlimit:10;}
	.st2{fill:#FFFFFF;}
	.st3{fill:#586670;}
	.st4{opacity:0.15;}
</style>
<g>
	<path class="st0" d="M72.144,28.488c4.236,5.144,1.398,12.644,1.032,13.57c-2.395,6.055-8.32,9.781-14.004,10.674
		c-10.456,1.643-16.874-5.845-16.874-5.845c-0.619-0.722-1.356-1.717-1.637-2.211c-0.282-0.494-1.024-1.796-1.024-1.796l0,0
		c-0.939-1.205,0.515-3.931,2.153-5.202c1.639-1.273,3.155-1.205,3.155-1.205c0.95,0.042,1.727,0.077,1.727,0.077
		c0,0,0.769-0.117,1.71-0.259c0,0,3.109-0.472,6.044-2.082c6.424-3.524,7.602-9.073,11.881-9.134
		C69.298,25.032,71.501,27.707,72.144,28.488z"/>
	<path class="st0" d="M14.626,20.703c2.337-6.241,10.251-7.533,11.236-7.678c6.441-0.953,12.631,2.315,16.246,6.791
		c6.651,8.234,3.375,17.536,3.375,17.536c-0.316,0.897-0.809,2.033-1.096,2.523s-1.043,1.785-1.043,1.785l0,0
		c-0.574,1.415-3.662,1.519-5.582,0.736c-1.922-0.783-2.621-2.13-2.621-2.13c-0.438-0.844-0.797-1.535-0.797-1.535
		c0,0-0.486-0.608-1.079-1.351c0,0-1.963-2.457-4.825-4.193c-6.264-3.801-11.658-2.047-13.851-5.722
		C13.056,24.896,14.271,21.651,14.626,20.703z"/>
	<path class="st0" d="M37.447,74.545c-6.573,1.097-11.649-5.111-12.267-5.891c-4.046-5.102-4.311-12.096-2.242-17.465
		c3.805-9.877,13.499-11.691,13.499-11.691c0.935-0.175,2.165-0.316,2.733-0.312c0.569,0.003,2.067,0.011,2.067,0.011l0,0
		c1.513-0.21,3.146,2.411,3.429,4.466c0.282,2.056-0.534,3.335-0.534,3.335c-0.512,0.802-0.93,1.457-0.93,1.458
		c0,0-0.284,0.725-0.63,1.61c0,0-1.146,2.929-1.219,6.275c-0.16,7.325,4.057,11.12,1.97,14.856
		C41.862,73.808,38.444,74.378,37.447,74.545z"/>
	<path class="st1" d="M55.333,33.2"/>
	<path class="st0" d="M42.883,40.117"/>
	<circle class="st2" cx="41.5" cy="41.5" r="6.917"/>
	<path class="st3" d="M41.5,5.188c4.904,0,9.659,0.959,14.133,2.851c4.323,1.829,8.207,4.448,11.544,7.784s5.956,7.22,7.784,11.544
		c1.892,4.473,2.851,9.228,2.851,14.133s-0.959,9.659-2.851,14.133c-1.829,4.323-4.448,8.207-7.784,11.544s-7.22,5.956-11.544,7.784
		c-4.473,1.892-9.228,2.851-14.133,2.851s-9.659-0.959-14.133-2.851c-4.323-1.829-8.207-4.448-11.544-7.784
		s-5.956-7.22-7.784-11.544C6.147,51.159,5.188,46.404,5.188,41.5s0.959-9.659,2.851-14.133c1.829-4.323,4.448-8.207,7.784-11.544
		s7.22-5.956,11.544-7.784C31.841,6.147,36.596,5.188,41.5,5.188 M41.5,0C18.58,0,0,18.58,0,41.5S18.58,83,41.5,83S83,64.42,83,41.5
		S64.42,0,41.5,0L41.5,0z"/>
	<g class="st4">
		<path d="M70.845,12.155l-58.69,58.69C19.665,78.355,30.04,83,41.5,83C64.42,83,83,64.42,83,41.5
			C83,30.04,78.355,19.665,70.845,12.155z"/>
	</g>
	<circle class="st3" cx="41.5" cy="41.5" r="4.15"/>
</g>
<g>
	<path class="st3" d="M113.041,55.5H95.773V25.518h17.268v5.209h-10.91v6.583h10.151v5.209h-10.151v7.731h10.91V55.5z"/>
	<path class="st3" d="M132.031,30.378c-2.393,0-4.245,0.899-5.558,2.697s-1.969,4.303-1.969,7.516
		c0,6.686,2.509,10.028,7.526,10.028c2.105,0,4.655-0.526,7.649-1.579v5.332c-2.461,1.025-5.209,1.538-8.244,1.538
		c-4.361,0-7.697-1.322-10.008-3.969c-2.311-2.645-3.466-6.442-3.466-11.392c0-3.117,0.567-5.848,1.702-8.193
		s2.765-4.143,4.891-5.394s4.618-1.876,7.475-1.876c2.912,0,5.838,0.704,8.777,2.112l-2.051,5.168
		c-1.121-0.533-2.249-0.998-3.384-1.395S133.125,30.378,132.031,30.378z"/>
	<path class="st0" d="M148.622,55.5h-2.092V25.518h16.427v1.928h-14.335V40.16h13.535v1.948h-13.535V55.5z"/>
	<path class="st0" d="M180.635,55.5l-0.513-3.527h-0.164c-1.121,1.436-2.273,2.451-3.456,3.045
		c-1.183,0.596-2.581,0.893-4.194,0.893c-2.188,0-3.89-0.561-5.106-1.682s-1.825-2.673-1.825-4.655c0-2.174,0.906-3.862,2.717-5.065
		s4.433-1.839,7.865-1.907l4.245-0.123v-1.477c0-2.119-0.431-3.719-1.292-4.799s-2.249-1.62-4.163-1.62
		c-2.064,0-4.204,0.574-6.419,1.723l-0.759-1.764c2.447-1.148,4.867-1.723,7.26-1.723c2.447,0,4.276,0.636,5.486,1.907
		s1.815,3.254,1.815,5.947V55.5H180.635z M172.432,54.064c2.379,0,4.255-0.68,5.629-2.041c1.374-1.359,2.061-3.25,2.061-5.67v-2.194
		l-3.896,0.164c-3.131,0.15-5.363,0.64-6.696,1.466c-1.333,0.828-2,2.116-2,3.866c0,1.395,0.427,2.478,1.282,3.251
		C169.667,53.678,170.873,54.064,172.432,54.064z"/>
	<path class="st0" d="M204.896,55.5V41.042c0-2.242-0.472-3.873-1.415-4.891s-2.406-1.528-4.389-1.528
		c-2.666,0-4.618,0.673-5.855,2.02s-1.856,3.531-1.856,6.552V55.5h-2.03V33.208h1.723l0.39,3.056h0.123
		c1.449-2.324,4.026-3.486,7.731-3.486c5.059,0,7.588,2.714,7.588,8.142V55.5H204.896z"/>
</g>
<g>
</g>
<g>
</g>
<g>
</g>
<g>
</g>
<g>
</g>
<g>
</g>
<g>
</g>
<g>
</g>
<g>
</g>
<g>
</g>
<g>
</g>
<g>
</g>
<g>
</g>
<g>
</g>
<g>
</g>
</svg>
